<svg width="796" height="596" viewBox="0 0 796 596" fill="none" xmlns="http://www.w3.org/2000/svg">
<g clip-path="url(#clip0_103_12)">
<path d="M153.168 339.7C147.306 339.7 142.768 344 142.768 350.3C142.768 356.6 147.306 360.9 153.168 360.9C159.03 360.9 163.568 356.6 163.568 350.3C163.568 344.1 159.03 339.7 153.168 339.7ZM153.168 357.9C149.008 357.9 145.982 354.7 145.982 350.4C145.982 346.1 149.008 342.8 153.168 342.8C157.328 342.8 160.354 346.1 160.354 350.4C160.448 354.6 157.328 357.9 153.168 357.9Z" fill="black"/>
<path d="M254.145 302.7H203.657L209.329 209.9L176.616 302.7H129.72L204.129 93H253.956L248.189 187L281.659 93H328.46L254.145 302.7Z" fill="black"/>
<path d="M260.196 302.7L334.606 93H381.501L307.092 302.7H260.196Z" fill="black"/>
<path d="M124.331 230.4C58.8089 311.8 -3.02555 420.1 51.6232 469.9C104.476 518.2 170.659 489.6 215.664 470.5C260.764 451.4 758.937 222.6 758.937 222.6C763.759 220.1 762.814 216.9 756.857 218.5C754.399 219.1 214.435 373.9 214.435 373.9C145.982 394.3 67.7909 349.9 124.331 230.4Z" fill="black"/>
<path d="M154.964 351.1C156.382 351 157.517 350.2 157.517 348.1C157.517 345.4 155.815 344.7 152.979 344.7H148.913V356H151.655V351.2H152.128L154.586 356H157.706L154.964 351.1ZM153.262 349.2H151.75V346.6H153.073C153.83 346.6 154.775 346.7 154.775 347.8C154.681 349 154.208 349.2 153.262 349.2Z" fill="black"/>
<path d="M624.49 92.2998C618.628 92.2998 614.09 96.5998 614.09 102.9C614.09 109.2 618.628 113.5 624.49 113.5C630.352 113.5 634.89 109.2 634.89 102.9C634.796 96.5998 630.257 92.2998 624.49 92.2998ZM624.49 110.4C620.33 110.4 617.304 107.2 617.304 102.9C617.304 98.5998 620.33 95.2998 624.49 95.2998C628.65 95.2998 631.676 98.5998 631.676 102.9C631.676 107.2 628.555 110.4 624.49 110.4Z" fill="black"/>
<path d="M626.192 103.6C627.61 103.5 628.744 102.7 628.744 100.6C628.744 97.9002 627.043 97.2002 624.206 97.2002H620.235V108.6H622.977V103.8H623.45L625.908 108.6H629.028L626.192 103.6ZM624.49 101.8H622.977V99.2002H624.301C625.057 99.2002 626.003 99.3002 626.003 100.4C626.003 101.5 625.435 101.8 624.49 101.8Z" fill="black"/>
<path d="M593.573 127.9L606.148 92.8999H512.167H511.789H463.096L413.931 155.8L436.623 92.8999H389.16L315.412 302.7H362.308L393.793 215L395.967 302.7L539.775 302.4L553.484 262H498.836L516.8 211.1H561.899L575.798 172H530.698L546.11 127.8H593.573V127.9ZM442.485 288.7L439.459 179.4L510.37 97.0999L442.485 288.7Z" fill="black"/>
</g>
<defs>
<clipPath id="clip0_103_12">
<rect width="796" height="595.3" fill="white"/>
</clipPath>
</defs>
</svg>
